The Borgias S02E07 HDTV XviD Atilla82


The Borgias (2011)

The saga of a crime family in 1492 Italy.
 
http://www.imdb.com/title/tt1582457/ [rate:7.9/10] 8,625 votes
 



language: English

screenshots included in torrent


General
Complete name : The.Borgias.S02E07.HDTV.XviD-Atilla82.avi
Format : AVI
Format/Info : Audio Video Interleave
File size : 401 MiB
Duration : 51mn 55s
Overall bit rate : 1 081 Kbps
Writing application : Lavf52.61.0

Video
ID : 0
Format : MPEG-4 Visual
Format profile : Advanced Simple@L5
Format settings, BVOP : No
Format settings, QPel : Yes
Format settings, GMC : No warppoints
Format settings, Matrix : Default (H.263)
Codec ID : XVID
Codec ID/Hint : XviD
Duration : 51mn 55s
Bit rate : 940 Kbps
Width : 680 pixels
Height : 380 pixels
Display aspect ratio : 16:9
Frame rate : 23.976 fps
Color space : YUV
Chroma subsampling : 4:2:0
Bit depth : 8 bits
Scan type : Progressive
Compression mode : Lossy
Bits/(Pixel*Frame) : 0.152
Stream size : 349 MiB (87%)
Writing library : XviD 64

Audio
ID : 1
Format : MPEG Audio
Format version : Version 1
Format profile : Layer 3
Codec ID : 55
Codec ID/Hint : MP3
Duration : 51mn 55s
Bit rate mode : Constant
Bit rate : 128 Kbps
Channel(s) : 2 channels
Sampling rate : 48.0 KHz
Compression mode : Lossy
Stream size : 47.5 MiB (12%)
Alignment : Aligned on interleaves
Interleave, duration : 24 ms (0.58 video frame)




SCREENSHOTS 
http://www.pohrani.com/f/3S/B4/4SDpLzFB/screenshots.jpg

